<svg xmlns="http://www.w3.org/2000/svg" viewBox="0 0 64 64" fill="none">
  <rect width="64" height="64" rx="14" fill="#fff"/>
  <path d="M38 18c-1.2 0-3.2.8-4.8 2.4-.9.9-1.7 2.1-1.4 3.4 1.5-.1 3.1-.9 4.2-2 1.1-1.1 1.9-2.5 2-3.8z" fill="#555"/>
  <path d="M40 24c-3.4 0-5.2 2-7.8 2-2.6 0-4.7-1.9-7.8-2-4-.6-7.7 2.3-9.8 6.2-4.2 7.3-1.1 18.1 3 24 2 2.9 4.4 6.1 7.6 6 3-.1 4.2-1.9 7.8-1.9 3.6 0 4.6 1.9 7.8 1.8 3.2-.1 5.3-2.9 7.3-5.8 2.3-3.4 3.2-6.7 3.3-6.9-.1 0-6.3-2.4-6.3-9.5 0-6 4.9-8.8 5.2-9.1-2.8-4.1-7.2-4.6-8.7-4.7z" fill="#555"/>
</svg>
