<svg xmlns="http://www.w3.org/2000/svg" viewBox="0 0 64 64" fill="none">
  <rect width="64" height="64" rx="14" fill="#10A37F"/>
  <path d="M32 14c-6.6 0-12 5.4-12 12 0 4.9 2.9 9.1 7.1 11-2.8 1.6-4.6 4.6-4.6 8 0 5 4.1 9.1 9.1 9.1 2.8 0 5.3-1.3 6.9-3.3 1.6 2 4.1 3.3 6.9 3.3 5 0 9.1-4.1 9.1-9.1 0-3.4-1.8-6.4-4.6-8 4.2-1.9 7.1-6.1 7.1-11 0-6.6-5.4-12-12-12z" stroke="#fff" stroke-width="2.5" fill="none"/>
  <circle cx="32" cy="26" r="3" fill="#fff"/>
  <circle cx="24" cy="36" r="2.5" fill="#fff"/>
  <circle cx="40" cy="36" r="2.5" fill="#fff"/>
</svg>
